<mxfile host="app.diagrams.net" modified="2023-08-27T06:15:09.144Z" agent="Mozilla/5.0 (Windows NT 10.0; Win64; x64) AppleWebKit/537.36 (KHTML, like Gecko) Chrome/116.0.0.0 Safari/537.36" etag="MdkzD05LGjeXIfO9uPIx" version="21.6.9" type="device">
  <diagram id="Vp-sD-l9kzpEGVtA2RE4" name="BUC">
    <mxGraphModel dx="1434" dy="750" grid="1" gridSize="10" guides="1" tooltips="1" connect="1" arrows="1" fold="1" page="1" pageScale="1" pageWidth="827" pageHeight="1169" math="0" shadow="0">
      <root>
        <mxCell id="0" />
        <mxCell id="1" parent="0" />
        <mxCell id="eDLGHlXj9hkd9nKBL7HL-6" value="" style="group" parent="1" vertex="1" connectable="0">
          <mxGeometry x="70" y="30" width="40" height="80" as="geometry" />
        </mxCell>
        <mxCell id="eDLGHlXj9hkd9nKBL7HL-10" value="" style="group" parent="eDLGHlXj9hkd9nKBL7HL-6" vertex="1" connectable="0">
          <mxGeometry x="-30" y="10" width="40" height="80" as="geometry" />
        </mxCell>
        <mxCell id="eDLGHlXj9hkd9nKBL7HL-1" value="" style="shape=umlActor;verticalLabelPosition=bottom;verticalAlign=top;html=1;outlineConnect=0;strokeColor=#0066CC;" parent="eDLGHlXj9hkd9nKBL7HL-10" vertex="1">
          <mxGeometry width="40" height="80" as="geometry" />
        </mxCell>
        <mxCell id="eDLGHlXj9hkd9nKBL7HL-5" value="" style="endArrow=none;html=1;strokeColor=#0066CC;" parent="eDLGHlXj9hkd9nKBL7HL-10" edge="1">
          <mxGeometry width="50" height="50" relative="1" as="geometry">
            <mxPoint x="20" y="20" as="sourcePoint" />
            <mxPoint x="30" y="10" as="targetPoint" />
          </mxGeometry>
        </mxCell>
        <mxCell id="eDLGHlXj9hkd9nKBL7HL-8" value="" style="group" parent="1" vertex="1" connectable="0">
          <mxGeometry x="200" y="45" width="140" height="70" as="geometry" />
        </mxCell>
        <mxCell id="eDLGHlXj9hkd9nKBL7HL-2" value="" style="ellipse;whiteSpace=wrap;html=1;strokeColor=#0066CC;" parent="eDLGHlXj9hkd9nKBL7HL-8" vertex="1">
          <mxGeometry width="140" height="70" as="geometry" />
        </mxCell>
        <mxCell id="eDLGHlXj9hkd9nKBL7HL-7" value="" style="endArrow=none;html=1;entryX=1;entryY=0.5;entryDx=0;entryDy=0;strokeColor=#0066CC;" parent="eDLGHlXj9hkd9nKBL7HL-8" target="eDLGHlXj9hkd9nKBL7HL-2" edge="1">
          <mxGeometry width="50" height="50" relative="1" as="geometry">
            <mxPoint x="70" y="70" as="sourcePoint" />
            <mxPoint x="120" y="20" as="targetPoint" />
          </mxGeometry>
        </mxCell>
        <mxCell id="E8iNg-OijtYIljGcVxgf-2" style="edgeStyle=none;shape=connector;rounded=0;orthogonalLoop=1;jettySize=auto;html=1;labelBackgroundColor=default;strokeColor=#6c8ebf;fontFamily=Helvetica;fontSize=12;fontColor=default;endArrow=block;endFill=1;fillColor=#dae8fc;exitX=0.5;exitY=0.5;exitDx=0;exitDy=0;exitPerimeter=0;" edge="1" parent="1" source="eDLGHlXj9hkd9nKBL7HL-1" target="eDLGHlXj9hkd9nKBL7HL-2">
          <mxGeometry relative="1" as="geometry" />
        </mxCell>
      </root>
    </mxGraphModel>
  </diagram>
</mxfile>
